<svg xmlns="http://www.w3.org/2000/svg" aria-hidden="true" style="position:absolute;width:0;height:0;overflow:hidden">
    <defs>
        <symbol id="icon-chevron-down" viewBox="0 0 48 32">
            <path d="M40 0 22.828 17.172 5.656 0 0 5.656l22.828 22.828L45.656 5.656z" />
        </symbol>
        <symbol id="icon-chevron-up" viewBox="0 0 48 32">
            <path d="m5.656 28.484 17.172-17.172L40 28.484l5.656-5.656L22.828 0 0 22.828z" />
        </symbol>
        <symbol id="icon-leaf" viewBox="0 0 30 32">
            <path
                d="m29.958 0-1.92.64a22.15 22.15 0 0 1-10.256 1.024 19 19 0 0 0-10.688 1.44A11.57 11.57 0 0 0 .23 11.76a13.84 13.84 0 0 0 2.352 10.56c-.096.336-.192.672-.272 1.008a36.2 36.2 0 0 0-.96 8.432h3.2c.15-2.324.466-4.633.944-6.912a14.8 14.8 0 0 0 7.232 1.776 17.6 17.6 0 0 0 6.848-1.392C31.75 20.032 30.15 2.736 30.15 2.016zM18.326 22.288c-4.176 1.776-9.168 1.472-11.968-.72a22 22 0 0 1 1.936-4.544 16.2 16.2 0 0 1 2.224-2.864 14.4 14.4 0 0 1 2.896-2.272A19.2 19.2 0 0 1 20.55 9.36v-1.6c-2.903-.1-5.788.492-8.416 1.728a16.45 16.45 0 0 0-6.592 5.84 24 24 0 0 0-1.6 2.992 11.2 11.2 0 0 1-.608-5.968c.225-1.406.805-2.731 1.684-3.85s2.029-1.997 3.34-2.55c1.913-.894 4-1.353 6.112-1.344.992 0 1.968.096 2.992.176 3.207.414 6.463.224 9.6-.56-.112 4.416-.912 14.736-8.736 18.064" />
        </symbol>
        <symbol id="icon-link-icon" viewBox="0 0 29 32">
            <path
                d="M28.368 8.192a3.2 3.2 0 0 1 .432 1.6v12.4a3.3 3.3 0 0 1-.432 1.6l-.24.4c-.274.49-.678.894-1.168 1.168l-10.736 6.208a3.2 3.2 0 0 1-1.6.432h-.448a3.1 3.1 0 0 1-1.6-.432L1.824 25.376a3.4 3.4 0 0 1-1.168-1.168l-.224-.4a3.2 3.2 0 0 1-.432-1.6v-12.4a3.2 3.2 0 0 1 .432-1.6l.224-.4c.28-.485.683-.888 1.168-1.168L12.56.432A3.2 3.2 0 0 1 14.16 0h.464a3.2 3.2 0 0 1 1.6.432L26.96 6.624c.488.282.895.684 1.184 1.168zM14.16 3.2 4.8 8.608l9.6 5.536L24 8.608 14.624 3.2zM16 28l9.36-5.408.24-.4V11.376L16 16.928z" />
        </symbol>
        <symbol id="icon-logo" viewBox="0 0 46 32">
            <path fill="#f9f5ea"
                d="M4.638 12.972q.061.7.118 1.401l-.079-.945zm8.455-8.44-.027-.001h.027zm-4.562 9.882c-.696-.935-.999-2.036-.817-3.179.169-1.066.764-1.919 1.666-2.545a15 15 0 0 1 1.191-.722c.525-.296 1.049-.592 1.521-.967q.07-.056.157-.134c.219-.191.504-.44.732-.439q.02.001.039.004.03.027.05.057a.4.4 0 0 1 .05.112q.011.039.019.081c.041.198.055.404.07.609a9 9 0 0 0 .062.618l.027.213c.048.39.097.782.117 1.172.076 1.458-.139 2.883-1.185 4.003-.653.699-1.491 1.116-2.419 1.342-.18.044-.37.103-.556.11l-.037.001q-.058.001-.117-.002l-.037.129-.021.072c-.129.456-.338 1.193-.589 1.408a.4.4 0 0 1-.078.053.3.3 0 0 1-.135.034.2.2 0 0 1-.048-.006c-.088-.022-.132-.065-.173-.141-.168-.309.267-1.318.458-1.761l.052-.123z"
                style="fill:var(--color1, #f9f5ea)" />
            <path fill="#1c1b1a"
                d="M9.276.002c.172.008.344.042.473.139.359.271.441 1.548.486 2.249.008.124.015.23.022.309.424-.071.901-.063 1.34-.056l.127.002c.264.315.278.574.299.942l.005.09c.311.072.86.061 1.441.049.865-.018 1.8-.037 2.118.217.167.134.278.351.323.555.093.422.139.874.182 1.313l.037.358q.128 1.218.273 2.435l1.082 8.932.056-.005c.218-.022.406-.041.6.09a.6.6 0 0 1 .168.174.8.8 0 0 1 .108.32c.041.32-.004.723-.218.98a.57.57 0 0 1-.273.188c-.371.112-.856.066-1.246.084a20 20 0 0 0-1.187.088c.363 1.346.671 2.708.979 4.07.175.775.35 1.55.535 2.321q.347 1.39.674 2.785c.128.528.29 1.066.37 1.602.023.157.031.26-.06.401-.111.172-.313.276-.514.316-.306.061-.536-.023-.783-.189a.75.75 0 0 1-.316-.383c-.202-.524-.249-1.129-.372-1.675a150 150 0 0 1-.97-4.443q-2.193.174-4.392.285l-.763.045a44 44 0 0 1-2.36.102c-.001.526-.077 1.058-.124 1.582-.022.243-.037.487-.054.73q-.026.412-.063.822-.034.342-.081.682-.035.264-.066.528c-.075.682-.083 1.371-.186 2.051a1 1 0 0 1-.102.352c-.105.188-.277.268-.478.332a2 2 0 0 1-.418-.025 2 2 0 0 1-.167-.039c-.261-.08-.39-.21-.519-.437-.013-.628.056-1.248.125-1.869q.035-.307.065-.618.07-.811.146-1.622.1-1.084.209-2.168l.314-3.58c.023-.258.037-.517.056-.777s.041-.519.08-.776c-.31.021-.62.025-.93.028-.289.003-.578.006-.866.023a.3.3 0 0 0-.081.084c-.039.06-.063.134-.086.199-.199.563-.351 1.156-.502 1.742q-.092.361-.188.717l-1.201 4.4c-.03.113-.068.269-.112.45-.163.671-.406 1.672-.625 1.956-.123.16-.343.239-.539.268-.31.046-.763.005-1.013-.198a.3.3 0 0 1-.081-.089.3.3 0 0 1-.031-.176c.036-.654.395-1.82.678-2.739.087-.281.166-.539.227-.752l1.471-5.289q.48-1.698.928-3.404.063-.227.136-.465c.109-.356.221-.723.263-1.072.078-.646-.183-2.045-.267-2.757l-.664-6.047q-.051-.476-.112-.951-.044-.353-.084-.704-.019-.16-.041-.32a4 4 0 0 1-.037-.43.7.7 0 0 1 .01-.14c.024-.124.087-.213.199-.319.146-.138.316-.258.517-.303.345-.078.742-.053 1.12-.029q.209.014.406.021c.743.019 1.488.042 2.231.041l-.012-.132c-.026-.255-.06-.595.108-.762.209-.208.903-.107 1.194-.119a7 7 0 0 0-.053-.913C8.185 1.31 8.15.95 8.18.676A.7.7 0 0 1 8.304.34c.162-.22.416-.296.68-.333.093-.006.195-.009.296-.005zm4.669 19.526c-.298.009-.599.01-.897.031l-3.397.131c-.543.023-1.095.088-1.637.069a59 59 0 0 1-.34 3.656c.532-.034 1.067-.072 1.6-.077 1.814-.064 3.625-.227 5.439-.297-.252-1.17-.482-2.351-.769-3.513zm-9.369-7.237a141 141 0 0 1 .18 2.083 97 97 0 0 0 .354 3.719c.908-.018 1.816-.076 2.724-.133q.542-.035 1.082-.066.622-.035 1.245-.056 2.205-.062 4.407-.186.265-.012.537-.012.207 0 .415-.006.24-.006.474-.037l.567-.04a35 35 0 0 0-.189-1.989q-.056-.464-.115-.926-.077-.604-.148-1.209l-1.025-8.827q-.424-.029-.848-.043-.464-.015-.929-.025l-.237-.005-.35-.009a155 155 0 0 0-3.126-.08q-.876-.003-1.751.001c-1.355.004-2.708.008-4.066-.048zm8.443-5.858q.03.027.051.057a.4.4 0 0 1 .05.111q.011.04.019.082c.041.198.055.404.07.609a9 9 0 0 0 .062.618l.027.213c.048.39.097.782.117 1.172.076 1.458-.138 2.883-1.184 4.003-.653.699-1.491 1.116-2.419 1.342-.18.044-.37.103-.556.11l-.037.001q-.059.001-.117-.002l-.037.129-.021.072c-.129.456-.338 1.193-.588 1.408a.36.36 0 0 1-.163.082.199.199 0 0 1-.099-.002.25.25 0 0 1-.173-.14c-.168-.309.267-1.318.458-1.761l.052-.122c-.696-.935-.999-2.036-.817-3.179.169-1.066.764-1.919 1.666-2.545a15 15 0 0 1 1.191-.722c.525-.296 1.049-.592 1.521-.967q.07-.056.157-.134c.219-.191.504-.44.732-.439q.02.001.039.004z"
                style="fill:var(--color2, #1c1b1a)" />
            <path fill="#7a945c"
                d="M8.53 14.414c-.696-.935-.999-2.036-.817-3.179.17-1.066.764-1.919 1.666-2.545.879-.609 1.876-1.026 2.712-1.689.221-.175.601-.574.889-.572q.02.001.039.004c.077.068.099.153.119.249.063.305.064.63.098.939.061.555.148 1.116.177 1.673.076 1.458-.139 2.883-1.184 4.003-.653.699-1.491 1.116-2.419 1.342-.18.044-.37.103-.556.11l-.037.001q-.058.001-.117-.002c-.118.396-.354 1.358-.647 1.609-.069.059-.167.104-.261.08a.25.25 0 0 1-.173-.141c-.168-.309.267-1.318.458-1.761l.052-.123z"
                style="fill:var(--color3, #7a945c)" />
            <path fill="#1c1b1a"
                d="M8.53 14.414c.184-.493.426-1.118.644-1.591.368-.798 1.855-3.684 2.597-3.966.043-.016.044-.014.083-.018.037.027.058.027.062.076.014.174-.142.477-.225.633-.208.393-.51.74-.738 1.123-.228.385-.427.797-.635 1.193-.36.684-.75 1.394-1.013 2.119-.089.245-.142.512-.205.765-.118.396-.354 1.358-.647 1.609-.069.059-.167.104-.261.081a.25.25 0 0 1-.173-.141c-.169-.309.267-1.318.458-1.761zM29.19 7.043a1 1 0 0 1 .123.003c.197.017.358.136.478.284.18.22.214.464.182.736-.17 1.443-1.909 5.412-2.696 6.679-.373.602-.894 1.287-1.473 1.721-.223.166-.516.322-.807.277-.241-.037-.419-.214-.55-.403-.75-1.081-.045-3.665.188-4.878-.214.347-.377.744-.56 1.109-.379.756-.768 1.521-1.204 2.247-.351.585-1.101 1.763-1.807 1.925a.67.67 0 0 1-.504-.076.79.79 0 0 1-.354-.515c-.138-.756 1.027-7.72 1.313-8.68a.9.9 0 0 1 .134-.261c.045-.016.096-.037.145-.038.126-.004.286.098.375.176.173.151.285.36.286.587.002.627-.253 1.324-.385 1.94a34 34 0 0 0-.574 3.514c-.064.591-.132 1.172-.101 1.768.416-.442.705-1.062 1.003-1.586a85 85 0 0 0 2.064-3.883c.27-.537.492-1.114.85-1.602a.26.26 0 0 1 .189.023c.263.119.497.417.595.672-.05.348-.149.693-.222 1.037-.148.705-.265 1.412-.397 2.119-.176.947-.41 1.965-.355 2.931.016.273.077.508.188.758 1.399-1.133 2.765-4.869 3.299-6.619.085-.279.157-.572.212-.858.052-.277.066-.607.179-.865a.7.7 0 0 1 .186-.24zM40.328 7.228a.7.7 0 0 0-.344-.09c-.253.261-1.093 2.444-1.592 3.741a44 44 0 0 1-.332.852c-.286-.294-.57-.483-1.005-.488-.534-.006-.996.271-1.356.632-.707.71-1.34 1.669-1.325 2.693.004.285.081.572.297.776.185.176.443.24.697.23.369-.014.682-.168 1.002-.326l.024-.011a4.6 4.6 0 0 0 1.072-.834q.006.129.009.284c.014.587.034 1.413.45 1.768.082.07.17.094.277.081a.49.49 0 0 0 .32-.191c.203-.296.047-1.052.046-1.404-.002-.969.21-2.001.506-2.924a23 23 0 0 1 .88-2.312q.117-.256.246-.516c.179-.367.361-.739.483-1.113a.7.7 0 0 0 .031-.398c-.051-.195-.21-.354-.387-.451zm-3.197 4.944q.062-.004.128-.006a.6.6 0 0 1 .139.011.3.3 0 0 1 .095.039.36.36 0 0 1 .136.143c.12.233.078.551-.019.783-.313.753-1.065 1.317-1.818 1.614a.5.5 0 0 1-.211.025.4.4 0 0 1-.136-.037c-.074-.035-.11-.114-.128-.189-.08-.31.122-.727.277-.997.314-.547.895-1.214 1.538-1.387zM22.55 18.264c.108-.013.216-.011.325-.008.434.014.871.162 1.167.482.245.266.363.602.338.957-.046.648-.487 1.228-.986 1.634a.64.64 0 0 1-.495.132c-.104-.011-.145-.045-.207-.124-.085-.396.554-1.083.687-1.509.043-.138.105-.345.006-.475-.065-.086-.186-.118-.289-.132-.877-.119-1.851.456-2.52.943-.686.5-1.661 1.419-1.766 2.299-.115.967 1.165 1.46 1.856 1.879.417.252.84.54 1.135.928.234.307.339.643.273 1.023-.07.407-.264.602-.593.834-.39.226-.919.374-1.365.443-.673.105-1.254-.033-1.798-.426-.248-.179-.707-.593-.725-.906a.25.25 0 0 1 .069-.204c.322-.377.853.251 1.14.409.292.16.637.247.972.213.474-.048.978-.225 1.286-.585l.031-.036c-.172-.984-1.324-1.319-2.052-1.845-.547-.395-1.041-.797-1.131-1.5-.112-.873.542-1.765 1.066-2.41.858-1.056 2.197-1.852 3.576-2.015zM26.142 18.511c.128-.007.254-.012.371.044.209.099.278.321.352.518-.105.531-.351 1.006-.576 1.496a86 86 0 0 0-.989 2.212c-.154.362-.328.721-.429 1.101.428-.356 2.048-1.651 2.528-1.594a.28.28 0 0 1 .212.127c.079.108.1.269.069.396-.135.54-1.627 1.256-2.143 1.557.336.513.549 1.127.92 1.606.436.564.593.021 1.022.125.142.034.218.152.293.263-.028.193-.113.296-.256.431a1.2 1.2 0 0 1-.857.313c-.819-.032-1.139-1.092-1.49-1.664a3.7 3.7 0 0 0-.506-.621c-.19.455-.308.969-.45 1.442-.053.179-.086.394-.182.556-.046.079-.116.144-.213.152-.15.013-.347-.168-.44-.263a.55.55 0 0 1-.168-.409c.012-.3.159-.649.247-.939.519-1.712 1.226-3.34 1.876-5.006.205-.525.363-1.104.611-1.608a.7.7 0 0 1 .198-.234zM42.79 18.282c.069-.001.147-.005.214.014.157.045.295.222.361.36a.85.85 0 0 1 .085.473c-.078.557-.333 1.122-.492 1.663-.192.654-.341 1.319-.535 1.972a23 23 0 0 1-.685 1.929c.415-.57 1.417-1.657 2.077-1.936.266-.113.551-.129.82-.016 1.233.52.105 2.025.435 2.71.11.227.345.2.548.289.072.032.12.086.131.164a.5.5 0 0 1-.109.35c-.154.195-.405.237-.639.269a4 4 0 0 1-.407-.194c-.637-.582-.267-1.475-.298-2.218-.006-.141-.017-.259-.129-.361-.465-.156-1.698 1.238-2.014 1.618-.253.305-.576.922-.953 1.064a.39.39 0 0 1-.311-.01c-.175-.083-.253-.264-.321-.429.208-1.425.752-2.742 1.133-4.12.229-.829.429-1.664.662-2.493.081-.288.142-.598.249-.877a.53.53 0 0 1 .176-.221zM31.331 22.079a1.4 1.4 0 0 0-.664-.05c-.621.084-1.033.418-1.401.892-.603.778-1.038 1.738-.893 2.736.059.403.264.781.606 1.023.359.254.851.351 1.286.277.466-.079 1.046-.467 1.304-.857.059-.09.114-.199.091-.309-.01-.047-.052-.086-.091-.121l-.031-.03-.037-.012c-.145-.045-.27-.08-.414-.004a2.6 2.6 0 0 0-.356.242c-.277.21-.552.419-.949.326a.6.6 0 0 1-.258-.14.7.7 0 0 1-.136-.179c-.209-.384-.146-.889-.045-1.295.566.206 1.124.263 1.693.022.462-.195.92-.668 1.102-1.126.096-.243.115-.505.001-.746-.144-.303-.489-.542-.808-.649m-.493.745h.023a.8.8 0 0 1 .225.024.8.8 0 0 1 .182.08.25.25 0 0 1 .135.181.5.5 0 0 1-.098.333c-.215.329-.572.486-.947.57l-.082.006c-.069.006-.137.012-.204.009a.47.47 0 0 1-.261-.082c-.035-.081-.049-.118-.015-.203.137-.344.705-.772 1.042-.919zM35.134 19.854a.7.7 0 0 1 .243.066c.191.097.254.284.311.474-.168.412-.398.804-.581 1.211.371-.007 1.11-.074 1.416.126a.34.34 0 0 1 .154.243.3.3 0 0 1-.075.255c-.221.25-1.501.212-1.884.244-.496.874-.915 2.024-1.049 3.017-.028.208-.033.46.115.63.501.578 1.6-.5 2.05-.419a.17.17 0 0 1 .115.073c.083.123.037.273.014.409-.229.333-.601.552-.973.71-.452.191-1.028.313-1.499.12a1.03 1.03 0 0 1-.571-.588c-.412-1.029.323-2.988.789-3.965a4.5 4.5 0 0 1-.698-.038c-.09-.146-.205-.307-.208-.483a.28.28 0 0 1 .098-.223c.219-.201.906-.105 1.19-.097.271-.501.573-1.476 1.045-1.764zM33.953 7.114c.183.027.368.07.521.179.159.113.242.27.264.459.079.685-1.039 3.573-1.336 4.47-.179.541-.34 1.096-.482 1.648-.111.435-.225.898-.276 1.344-.024.206-.003.561-.098.74q-.037.063-.085.118c-.113.043-.199.07-.322.041a.46.46 0 0 1-.307-.203c-.608-.99 1.078-5.111 1.406-6.294.13-.468.26-.953.352-1.431.055-.285.07-.587.152-.865.038-.128.099-.148.212-.206zM38.856 21.93l.063.001c.312.019.613.201.803.435.239.296.321.648.267 1.018-.033.23-.115.535-.324.673a.43.43 0 0 1-.347.049c-.579-.141.033-.87-.215-1.212-.043-.059-.117-.076-.188-.08a.53.53 0 0 0-.364.138c-.653.54-1.253 1.775-1.305 2.595-.01.154 0 .38.127.494.099.089.218.109.348.096.674-.067 1.273-.561 1.668-1.057a.7.7 0 0 1 .203-.144.37.37 0 0 1 .288.015.41.41 0 0 1 .232.259c.032.132-.026.27-.093.382-.375.624-1.113 1.111-1.827 1.284-.443.107-.95.111-1.347-.133a1.03 1.03 0 0 1-.473-.668c-.039-.182-.019-.389-.007-.573.056-.907.41-1.668.924-2.418.378-.552.882-1.024 1.567-1.154M30.294 11.611c.148 0 .283.025.413.097.251.14.324.404.391.657-.151.511-.362 1.003-.512 1.517-.158.538-.258 1.11-.437 1.637a.6.6 0 0 1-.169.242.8.8 0 0 1-.205.052.44.44 0 0 1-.315-.089c-.157-.129-.202-.368-.212-.556-.019-.314.042-.645.113-.95.106-.454.302-.885.443-1.329.104-.327.169-.69.3-1.006a.9.9 0 0 1 .19-.273zM31.112 8.886c.077-.004.158-.009.234-.001a.62.62 0 0 1 .398.223c.114.156.117.373.076.553a1.7 1.7 0 0 1-.716 1.001.33.33 0 0 1-.169.006.62.62 0 0 1-.405-.276c-.131-.226-.14-.527-.062-.771.105-.329.332-.578.644-.735"
                style="fill:var(--color2, #1c1b1a)" />
        </symbol>
        <symbol id="icon-map" viewBox="0 0 26 32">
            <path
                d="M12.8 19.2c3.53 0 6.4-2.87 6.4-6.4s-2.87-6.4-6.4-6.4-6.4 2.87-6.4 6.4 2.87 6.4 6.4 6.4m0-9.6c1.765 0 3.2 1.435 3.2 3.2S14.565 16 12.8 16s-3.2-1.435-3.2-3.2 1.435-3.2 3.2-3.2" />
            <path
                d="M11.872 31.702a1.6 1.6 0 0 0 1.856 0c.486-.344 11.918-8.598 11.872-18.902C25.6 5.742 19.858 0 12.8 0S0 5.742 0 12.792c-.046 10.312 11.386 18.566 11.872 18.91M12.8 3.2c5.294 0 9.6 4.306 9.6 9.608.034 7.101-7.021 13.477-9.6 15.568-2.578-2.093-9.634-8.47-9.6-15.576 0-5.294 4.306-9.6 9.6-9.6" />
        </symbol>
        <symbol id="icon-menu" viewBox="0 0 43 32">
            <path d="M0 0h42.667v5.333H0zm0 13.333h42.667v5.333H0zm0 13.334h42.667V32H0z" />
        </symbol>
        <symbol id="icon-spa" viewBox="0 0 32 32">
            <path
                d="M30.059 10.363c-.2.043-2.885.669-6.325 2.838-.517-2.507-2.046-7.202-6.573-11.976L15.999-.001l-1.162 1.227c-4.542 4.792-6.066 9.499-6.578 12.022-3.453-2.206-6.117-2.84-6.312-2.885l-1.949-.435v1.997c0 11.664 6.28 19.2 16 19.2 9.57 0 16-7.715 16-19.2V9.938l-1.941.424zm-18.861 4.824c.003-.053.243-4.96 4.802-10.451 4.502 5.44 4.8 10.39 4.8 10.39v.2a30.3 30.3 0 0 0-4.816 5.046 31.8 31.8 0 0 0-4.786-4.981zM16 27.926c-8.506 0-12.078-6.714-12.699-13.702 2.648 1.149 7.386 3.882 11.371 9.797l1.346 1.998 1.32-2.016c3.882-5.933 8.68-8.658 11.354-9.795-.637 6.765-4.205 13.718-12.691 13.718z" />
        </symbol>
        <symbol id="icon-star-filled" viewBox="0 0 34 32">
            <path
                d="M15.277 1.031c.579-1.375 2.551-1.375 3.13 0l3.417 8.116c.244.58.796.976 1.43 1.026l8.869.702c1.503.119 2.112 1.972.967 2.941l-6.757 5.718a1.66 1.66 0 0 0-.546 1.66l2.064 8.55c.35 1.449-1.245 2.594-2.532 1.817l-7.593-4.582a1.71 1.71 0 0 0-1.767 0l-7.593 4.582c-1.287.776-2.882-.369-2.532-1.817l2.064-8.55a1.66 1.66 0 0 0-.546-1.66L.595 13.816c-1.145-.969-.536-2.822.967-2.941l8.869-.702a1.69 1.69 0 0 0 1.429-1.026z" />
        </symbol>
        <symbol id="icon-star-outline" viewBox="0 0 20 19" stroke-linejoin="round">
            <path stroke-width="2" stroke="#000000" stroke-linejoin="round"
                d="M10.0078 1.001l2.0283 4.8183c0.2919 0.6929 0.9476 1.1588 1.6914 1.2178l5.2579 0.416-3.9961 3.3819h-1e-3c-0.5726 0.4847-0.8265 1.251-0.6494 1.9843l1.2226 5.0655c-16e-4 9e-4-26e-4 24e-4-39e-4 29e-4-17e-4-8e-4-44e-4-19e-4-78e-4-39e-4l-4.5088-2.7207c-0.6396-0.3859-1.4424-0.3859-2.082 0l-4.5088 2.7207c-34e-4 2e-3-61e-4 31e-4-78e-4 39e-4-16e-4-6e-4-3e-3-18e-4-49e-4-29e-4l1.2236-5.0655c0.166-0.6872-0.0468-1.4033-0.5459-1.8896L5.0117 10.835 1.0137 7.4531l5.2588-0.416c0.7438-0.059 1.3995-0.5246 1.6914-1.2178L9.9912 1.001C9.9936 1.0005 9.9966 1 10 1c3e-3 0 56e-4 6e-4 78e-4 1e-3z" />
        </symbol>
        <symbol id="icon-sun" viewBox="0 0 32 32">
            <path
                d="M7.992 16c0 4.418 3.594 8.011 8.011 8.011s8.011-3.594 8.011-8.011c0-4.418-3.594-8.011-8.011-8.011S7.992 11.583 7.992 16m8.011-4.811c2.653 0 4.811 2.158 4.811 4.811s-2.158 4.811-4.811 4.811-4.811-2.158-4.811-4.811 2.158-4.811 4.811-4.811M14.4 27.2h3.2V32h-3.2zm0-27.2h3.2v4.8h-3.2zM0 14.4h4.8v3.2H0zm27.2 0H32v3.2h-4.8zM3.554 26.181l3.392-3.395 2.264 2.262-3.392 3.395zM22.787 6.95l3.395-3.395 2.262 2.262-3.395 3.395zM6.95 9.214 3.555 5.819l2.264-2.262 3.392 3.395zm21.495 16.968-2.262 2.262-3.395-3.395 2.262-2.262z" />
        </symbol>
        <symbol id="icon-x" viewBox="0 0 32 32">
            <path
                d="M26.397 0 15.082 11.312 3.77 0-.001 3.771l11.312 11.312L-.001 26.395l3.771 3.771 11.312-11.312 11.315 11.312 3.771-3.771-11.312-11.312L30.168 3.771z" />
        </symbol>
    </defs>
</svg>